<svg xmlns:rdf="http://www.w3.org/1999/02/22-rdf-syntax-ns#" style="image-rendering:optimizeQuality;text-rendering:geometricPrecision;shape-rendering:geometricPrecision" xmlns="http://www.w3.org/2000/svg" fill-rule="evenodd" xml:space="preserve" height="139.62" width="500" version="1.1" clip-rule="evenodd" xmlns:cc="http://creativecommons.org/ns#" xmlns:dc="http://purl.org/dc/elements/1.1/" viewBox="0 0 500 139.61633"><defs><style type="text/css"><![CDATA[
    .str0 {stroke:#08338F;stroke-width:2.0787}
    .fil2 {fill:#FF0011}
    .fil1 {fill:#08338F}
    .fil0 {fill:#FEFEFE;fill-rule:nonzero}
   ]]></style></defs><g transform="translate(-47.379 -711.69)"><path d="m404.77 761.39 134.59-0.60491h7.259c-13.006 13.006-26.011 25.709-39.319 38.412h-30.548l-17.845 19.055h-22.987l-15.728 17.845-104.95 0.30245-5.7467-16.333-1.5123-4.2344h4.2344 81.966l8.1663-3.327c9.3762-3.9319 19.962-12.098 19.66-24.197-0.30245-11.796-7.259-17.845-18.147-21.172l-18.752-5.7467h19.66zm-349.34-0.60491 134.59 0.30245h19.66l-18.752 5.7467c-6.654 2.1172-9.9811 4.2344-12.098 6.0491-3.0246 3.327-6.3516 9.9811-6.3516 16.03-0.30246 3.327 1.2098 7.5614 3.0246 10.888 2.1172 3.0246 4.2344 5.1418 7.259 7.259 2.7221 2.1172 6.0491 3.6295 9.6786 5.1418l8.1663 3.6295h74.404 4.2344l-1.5123 3.9319-5.1418 14.518-0.60492 1.8147h-2.1172l-94.064-0.30246h-1.2098l-0.90737-0.90737-12.401-14.215-2.4197-2.7221-21.777 0.30246h-1.2098l-0.90737-0.90737-13.611-14.518-3.327-3.9319h-29.641-0.90737l-0.90737-0.90737-15.425-14.215-2.7221-2.7221-0.90737-0.90737-1.5123-1.2098v-0.30246l-12.703-13.006-5.1418-4.8393h7.259z" fill-rule="nonzero" stroke="#08338f" stroke-width=".62872" class="fil0 str0" fill="#fefefe"/><path d="m539.36 763.8-134.29 0.30246c14.518 4.5368 16.03 9.0737 18.147 14.215h101.93l14.215-14.518zm-483.93-0.3 134.59 0.61c-14.215 4.5368-16.333 8.7712-18.147 13.913h-102.23l-14.215-14.518zm107.98 55.35h111.61l-5.1418 14.215h-94.064l-12.401-14.215zm-39.622-18.147h48.696c3.9319 6.9565 11.191 11.191 18.752 14.215l-54.14 0.30245-13.308-14.518zm-50.51-19.055h97.693c-2.1172 4.8393-2.4197 9.3762-0.30246 14.215h-82.268l-15.123-14.215zm358.11 37.202h-119.17l5.1418 14.518h101.63l12.401-14.518zm39.622-17.845-48.998 0.30245c-3.6295 6.654-10.888 10.586-18.45 13.913h54.14l13.308-14.215zm50.51-19.357h-97.693c2.1172 4.8393 2.4197 9.3762 0.30246 14.518h82.268l15.123-14.518z" class="fil1" fill="#08338f"/><path d="m861 849-116-229 116-228 115 228z" fill-rule="nonzero" transform="matrix(.30246 0 0 .30246 33.049 593.82)" stroke="#08338f" stroke-width="2.0787" fill="#fefefe"/><path d="m962 620-101 201-102-201 102-201z" transform="matrix(.30246 0 0 .30246 33.049 593.82)" fill="#08338f"/><path d="m195.47 759.27h18.45 3.0246v3.0246 13.913l18.45-16.03 0.90737-0.90737h1.2098l19.055 0.60492h8.1663l-6.3516 5.1418-24.801 20.265 24.801 23.592 23.592-49.603h21.474l29.338 55.047 0.30246 0.60492v-55.652h22.684l0.30246 28.128 23.289-28.431h23.289l-0.30245 56.862h-24.197v-26.314l-22.079 26.314h-22.987-25.104l-4.8393-9.6786h-19.66l-3.6295 9.9811h-40.832-1.2098l-0.90737-0.90737-19.962-18.752v16.635 3.0246h-3.0246-18.45-3.0246v-3.0246-50.813-3.0246h3.0246zm97.693 24.801-3.327 7.259h6.9565l-3.6295-7.259z" fill-rule="nonzero" stroke="#08338f" stroke-width=".62872" class="fil0 str0" fill="#fefefe"/><path d="m195.47 762.29h18.45v20.567l23.592-20.567 19.055 0.30245-27.524 22.382 29.641 28.128h-19.66l-25.104-23.592v24.499h-18.45v-51.72zm140.64 0v51.115h18.45l26.314-32.363 0.30246 32.968h18.147l0.30246-52.023h-18.752l-27.524 33.573-0.30246-33.27h-16.938zm-75.614 51.115 23.289-51.115h17.845l26.919 50.51h-18.752l-4.8393-9.6786h-23.592l-3.6295 10.284h-17.24zm32.363-36.597-7.5614 17.542h16.03l-8.4688-17.542z" class="fil2" fill="#f01"/></g></svg>
